{
  "accessors": [
    {
      "bufferView": 1,
      "componentType": 5126,
      "count": 230,
      "max": [
        -5.2954220771789551,
        0.26796835660934448,
        5.3830647468566895
      ],
      "min": [
        -6.0502238273620605,
        -0.30458727478981018,
        4.628262996673584
      ],
      "type": "VEC3"
    },
    {
      "bufferView": 1,
      "byteOffset": 2760,
      "componentType": 5126,
      "count": 230,
      "max": [
        0.99021095037460327,
        0.95668113231658936,
        0.99021035432815552
      ],
      "min": [
        -0.99021017551422119,
        -1,
        -0.99021035432815552
      ],
      "type": "VEC3"
    },
    {
      "bufferView": 2,
      "componentType": 5126,
      "count": 230,
      "max": [
        0.99999988079071045,
        0.078188568353652954,
        0.99999988079071045,
        1
      ],
      "min": [
        -0.99999994039535522,
        -0.078189149498939514,
        -0.99999994039535522,
        1
      ],
      "type": "VEC4"
    },
    {
      "bufferView": 0,
      "componentType": 5125,
      "count": 1140,
      "max": [
        229
      ],
      "min": [
        0
      ],
      "type": "SCALAR"
    },
    {
      "bufferView": 1,
      "byteOffset": 5520,
      "componentType": 5126,
      "count": 126,
      "max": [
        -5.3557696342468262,
        0.55553722381591797,
        5.3212466239929199
      ],
      "min": [
        -5.9869351387023926,
        0.20547874271869659,
        4.6900811195373535
      ],
      "type": "VEC3"
    },
    {
      "bufferView": 1,
      "byteOffset": 7032,
      "componentType": 5126,
      "count": 126,
      "max": [
        0.99970203638076782,
        0.024416150525212288,
        0.99970191717147827
      ],
      "min": [
        -0.99970221519470215,
        -0.64945423603057861,
        -0.99970203638076782
      ],
      "type": "VEC3"
    },
    {
      "bufferView": 2,
      "byteOffset": 3680,
      "componentType": 5126,
      "count": 126,
      "max": [
        0.99999994039535522,
        0.077805168926715851,
        0.99999994039535522,
        1
      ],
      "min": [
        -0.99999994039535522,
        -0.077806748449802399,
        -1,
        1
      ],
      "type": "VEC4"
    },
    {
      "bufferView": 0,
      "byteOffset": 4560,
      "componentType": 5125,
      "count": 600,
      "max": [
        125
      ],
      "min": [
        0
      ],
      "type": "SCALAR"
    },
    {
      "bufferView": 1,
      "byteOffset": 8544,
      "componentType": 5126,
      "count": 230,
      "max": [
        -5.2954220771789551,
        0.26796835660934448,
        5.3830647468566895
      ],
      "min": [
        -6.0502238273620605,
        -0.30458727478981018,
        4.628262996673584
      ],
      "type": "VEC3"
    },
    {
      "bufferView": 1,
      "byteOffset": 11304,
      "componentType": 5126,
      "count": 230,
      "max": [
        0.99021095037460327,
        0.95668113231658936,
        0.99021035432815552
      ],
      "min": [
        -0.99021017551422119,
        -1,
        -0.99021035432815552
      ],
      "type": "VEC3"
    },
    {
      "bufferView": 2,
      "byteOffset": 5696,
      "componentType": 5126,
      "count": 230,
      "max": [
        0.99999988079071045,
        0.078188568353652954,
        0.99999988079071045,
        1
      ],
      "min": [
        -0.99999994039535522,
        -0.078189149498939514,
        -0.99999994039535522,
        1
      ],
      "type": "VEC4"
    },
    {
      "bufferView": 0,
      "byteOffset": 6960,
      "componentType": 5125,
      "count": 1140,
      "max": [
        229
      ],
      "min": [
        0
      ],
      "type": "SCALAR"
    },
    {
      "bufferView": 1,
      "byteOffset": 14064,
      "componentType": 5126,
      "count": 126,
      "max": [
        -5.3557696342468262,
        0.55553722381591797,
        5.3212466239929199
      ],
      "min": [
        -5.9869351387023926,
        0.20547874271869659,
        4.6900811195373535
      ],
      "type": "VEC3"
    },
    {
      "bufferView": 1,
      "byteOffset": 15576,
      "componentType": 5126,
      "count": 126,
      "max": [
        0.99970203638076782,
        0.024416150525212288,
        0.99970191717147827
      ],
      "min": [
        -0.99970221519470215,
        -0.64945423603057861,
        -0.99970203638076782
      ],
      "type": "VEC3"
    },
    {
      "bufferView": 2,
      "byteOffset": 9376,
      "componentType": 5126,
      "count": 126,
      "max": [
        0.99999994039535522,
        0.077805168926715851,
        0.99999994039535522,
        1
      ],
      "min": [
        -0.99999994039535522,
        -0.077806748449802399,
        -1,
        1
      ],
      "type": "VEC4"
    },
    {
      "bufferView": 0,
      "byteOffset": 11520,
      "componentType": 5125,
      "count": 600,
      "max": [
        125
      ],
      "min": [
        0
      ],
      "type": "SCALAR"
    },
    {
      "bufferView": 1,
      "byteOffset": 17088,
      "componentType": 5126,
      "count": 96,
      "max": [
        5.8286447525024414,
        3.801098108291626,
        4.7329235076904297
      ],
      "min": [
        -5.8286447525024414,
        1.072429895401001,
        -10.250039100646973
      ],
      "type": "VEC3"
    },
    {
      "bufferView": 1,
      "byteOffset": 18240,
      "componentType": 5126,
      "count": 96,
      "max": [
        0.99826216697692871,
        0.99986743927001953,
        0.99662488698959351
      ],
      "min": [
        -0.99826216697692871,
        -0.99995428323745728,
        -1
      ],
      "type": "VEC3"
    },
    {
      "bufferView": 2,
      "byteOffset": 11392,
      "componentType": 5126,
      "count": 96,
      "max": [
        1,
        0.43869620561599731,
        0.99999171495437622,
        1
      ],
      "min": [
        -0.43625351786613464,
        -0.43869626522064209,
        -0.99999171495437622,
        1
      ],
      "type": "VEC4"
    },
    {
      "bufferView": 0,
      "byteOffset": 13920,
      "componentType": 5125,
      "count": 324,
      "max": [
        95
      ],
      "min": [
        0
      ],
      "type": "SCALAR"
    },
    {
      "bufferView": 1,
      "byteOffset": 19392,
      "componentType": 5126,
      "count": 305,
      "max": [
        5.3578624725341797,
        6.5398092269897461,
        -7.8725624084472656
      ],
      "min": [
        -5.4027318954467773,
        3.6276180744171143,
        -10.474888801574707
      ],
      "type": "VEC3"
    },
    {
      "bufferView": 1,
      "byteOffset": 23052,
      "componentType": 5126,
      "count": 305,
      "max": [
        0.97347933053970337,
        0.99911463260650635,
        0.99698787927627563
      ],
      "min": [
        -0.97019463777542114,
        -0.98102962970733643,
        -0.99475842714309692
      ],
      "type": "VEC3"
    },
    {
      "bufferView": 2,
      "byteOffset": 12928,
      "componentType": 5126,
      "count": 305,
      "max": [
        0.99995142221450806,
        0.71631622314453125,
        0.81312823295593262,
        1
      ],
      "min": [
        -0.96133536100387573,
        -0.79466241598129272,
        -0.80827724933624268,
        1
      ],
      "type": "VEC4"
    },
    {
      "bufferView": 0,
      "byteOffset": 15216,
      "componentType": 5125,
      "count": 1452,
      "max": [
        304
      ],
      "min": [
        0
      ],
      "type": "SCALAR"
    },
    {
      "bufferView": 1,
      "byteOffset": 26712,
      "componentType": 5126,
      "count": 498,
      "max": [
        6.3517670631408691,
        6.4521965980529785,
        4.3427271842956543
      ],
      "min": [
        -6.3353214263916016,
        0.21099145710468292,
        -9.2562007904052734
      ],
      "type": "VEC3"
    },
    {
      "bufferView": 1,
      "byteOffset": 32688,
      "componentType": 5126,
      "count": 498,
      "max": [
        0.99970740079879761,
        0.99999809265136719,
        1
      ],
      "min": [
        -0.99996620416641235,
        -0.99998849630355835,
        -0.99844968318939209
      ],
      "type": "VEC3"
    },
    {
      "bufferView": 2,
      "byteOffset": 17808,
      "componentType": 5126,
      "count": 498,
      "max": [
        1,
        0.99994313716888428,
        0.99579316377639771,
        1
      ],
      "min": [
        -1,
        -0.99794173240661621,
        -0.99999994039535522,
        -1
      ],
      "type": "VEC4"
    },
    {
      "bufferView": 0,
      "byteOffset": 21024,
      "componentType": 5125,
      "count": 2070,
      "max": [
        497
      ],
      "min": [
        0
      ],
      "type": "SCALAR"
    },
    {
      "bufferView": 1,
      "byteOffset": 38664,
      "componentType": 5126,
      "count": 318,
      "max": [
        6.5209746360778809,
        4.3212089538574219,
        -3.4571332931518555
      ],
      "min": [
        -6.5058331489562988,
        0.13857173919677734,
        -7.6040234565734863
      ],
      "type": "VEC3"
    },
    {
      "bufferView": 1,
      "byteOffset": 42480,
      "componentType": 5126,
      "count": 318,
      "max": [
        0.9999271035194397,
        0.99994742870330811,
        0.99813270568847656
      ],
      "min": [
        -0.99996626377105713,
        -1,
        -0.99107319116592407
      ],
      "type": "VEC3"
    },
    {
      "bufferView": 2,
      "byteOffset": 25776,
      "componentType": 5126,
      "count": 318,
      "max": [
        0.99982541799545288,
        0.99999433755874634,
        0.99999898672103882,
        1
      ],
      "min": [
        -0.25336363911628723,
        -0.99974530935287476,
        -0.99999994039535522,
        -1
      ],
      "type": "VEC4"
    },
    {
      "bufferView": 0,
      "byteOffset": 29304,
      "componentType": 5125,
      "count": 1044,
      "max": [
        317
      ],
      "min": [
        0
      ],
      "type": "SCALAR"
    },
    {
      "bufferView": 1,
      "byteOffset": 46296,
      "componentType": 5126,
      "count": 1997,
      "max": [
        6.3379292488098145,
        8.6736335754394531,
        5.4755458831787109
      ],
      "min": [
        -6.3352479934692383,
        -0.29008370637893677,
        -11.021030426025391
      ],
      "type": "VEC3"
    },
    {
      "bufferView": 1,
      "byteOffset": 70260,
      "componentType": 5126,
      "count": 1997,
      "max": [
        1,
        1,
        1
      ],
      "min": [
        -1,
        -1,
        -1
      ],
      "type": "VEC3"
    },
    {
      "bufferView": 2,
      "byteOffset": 30864,
      "componentType": 5126,
      "count": 1997,
      "max": [
        1,
        0.78119724988937378,
        1,
        1
      ],
      "min": [
        -1,
        -0.78119724988937378,
        -1,
        -1
      ],
      "type": "VEC4"
    },
    {
      "bufferView": 0,
      "byteOffset": 33480,
      "componentType": 5125,
      "count": 6420,
      "max": [
        1996
      ],
      "min": [
        0
      ],
      "type": "SCALAR"
    }
  ],
  "asset": {
    "generator": "Sketchfab (OSG glTF plugin)",
    "version": "2.0"
  },
  "bufferViews": [
    {
      "buffer": 0,
      "byteLength": 59160,
      "byteOffset": 0,
      "name": "floatBufferViews",
      "target": 34963
    },
    {
      "buffer": 0,
      "byteLength": 94224,
      "byteOffset": 59160,
      "byteStride": 12,
      "name": "floatBufferViews",
      "target": 34962
    },
    {
      "buffer": 0,
      "byteLength": 62816,
      "byteOffset": 153384,
      "byteStride": 16,
      "name": "floatBufferViews",
      "target": 34962
    }
  ],
  "buffers": [
    {
      "byteLength": 216200,
      "uri": "scene.bin"
    }
  ],
  "materials": [
    {
      "doubleSided": true,
      "emissiveFactor": [
        0,
        0,
        0
      ],
      "name": "lambert7",
      "pbrMetallicRoughness": {
        "baseColorFactor": [
          0.086999999999999994,
          0.0514434,
          0.042978000000000002,
          1
        ],
        "metallicFactor": 0,
        "roughnessFactor": 0.59999999999999998
      }
    },
    {
      "doubleSided": true,
      "emissiveFactor": [
        0,
        0,
        0
      ],
      "name": "lambert8",
      "pbrMetallicRoughness": {
        "baseColorFactor": [
          0.45941442850000003,
          0.4371035975,
          0.4371035975,
          1
        ],
        "metallicFactor": 0,
        "roughnessFactor": 0.59999999999999998
      }
    },
    {
      "doubleSided": true,
      "emissiveFactor": [
        0,
        0,
        0
      ],
      "name": "lambert9",
      "pbrMetallicRoughness": {
        "baseColorFactor": [
          0.67100000000000004,
          0.67100000000000004,
          0.67100000000000004,
          1
        ],
        "metallicFactor": 0,
        "roughnessFactor": 0.59999999999999998
      }
    },
    {
      "doubleSided": true,
      "emissiveFactor": [
        0,
        0,
        0
      ],
      "name": "lambert10",
      "pbrMetallicRoughness": {
        "baseColorFactor": [
          0.066409254079730265,
          0.066409254079730265,
          0.20107457064754161,
          1
        ],
        "metallicFactor": 0,
        "roughnessFactor": 0.59999999999999998
      }
    },
    {
      "doubleSided": true,
      "emissiveFactor": [
        0,
        0,
        0
      ],
      "name": "lambert11",
      "pbrMetallicRoughness": {
        "baseColorFactor": [
          0.5,
          0.5,
          0.5,
          1
        ],
        "metallicFactor": 0,
        "roughnessFactor": 0.59999999999999998
      }
    }
  ],
  "meshes": [
    {
      "name": "polySurface33_lambert7_0",
      "primitives": [
        {
          "attributes": {
            "NORMAL": 1,
            "POSITION": 0,
            "TANGENT": 2
          },
          "indices": 3,
          "material": 0,
          "mode": 4
        }
      ]
    },
    {
      "name": "polySurface35_lambert7_0",
      "primitives": [
        {
          "attributes": {
            "NORMAL": 5,
            "POSITION": 4,
            "TANGENT": 6
          },
          "indices": 7,
          "material": 0,
          "mode": 4
        }
      ]
    },
    {
      "name": "polySurface45_lambert7_0",
      "primitives": [
        {
          "attributes": {
            "NORMAL": 9,
            "POSITION": 8,
            "TANGENT": 10
          },
          "indices": 11,
          "material": 0,
          "mode": 4
        }
      ]
    },
    {
      "name": "polySurface46_lambert7_0",
      "primitives": [
        {
          "attributes": {
            "NORMAL": 13,
            "POSITION": 12,
            "TANGENT": 14
          },
          "indices": 15,
          "material": 0,
          "mode": 4
        }
      ]
    },
    {
      "name": "polySurface28_lambert8_0",
      "primitives": [
        {
          "attributes": {
            "NORMAL": 17,
            "POSITION": 16,
            "TANGENT": 18
          },
          "indices": 19,
          "material": 1,
          "mode": 4
        }
      ]
    },
    {
      "name": "polySurface28_lambert9_0",
      "primitives": [
        {
          "attributes": {
            "NORMAL": 21,
            "POSITION": 20,
            "TANGENT": 22
          },
          "indices": 23,
          "material": 2,
          "mode": 4
        }
      ]
    },
    {
      "name": "polySurface28_lambert10_0",
      "primitives": [
        {
          "attributes": {
            "NORMAL": 25,
            "POSITION": 24,
            "TANGENT": 26
          },
          "indices": 27,
          "material": 3,
          "mode": 4
        }
      ]
    },
    {
      "name": "polySurface28_lambert11_0",
      "primitives": [
        {
          "attributes": {
            "NORMAL": 29,
            "POSITION": 28,
            "TANGENT": 30
          },
          "indices": 31,
          "material": 4,
          "mode": 4
        }
      ]
    },
    {
      "name": "polySurface28_lambert7_0",
      "primitives": [
        {
          "attributes": {
            "NORMAL": 33,
            "POSITION": 32,
            "TANGENT": 34
          },
          "indices": 35,
          "material": 0,
          "mode": 4
        }
      ]
    }
  ],
  "nodes": [
    {
      "children": [
        1
      ],
      "name": "RootNode (gltf orientation matrix)",
      "rotation": [
        -0.70710678118654746,
        -0,
        -0,
        0.70710678118654757
      ]
    },
    {
      "children": [
        2
      ],
      "name": "RootNode (model correction matrix)"
    },
    {
      "children": [
        3
      ],
      "matrix": [
        1,
        0,
        0,
        0,
        0,
        0,
        1,
        0,
        0,
        -1,
        0,
        0,
        0,
        0,
        0,
        1
      ],
      "name": "e208032673654928b679aa0e5766977b.fbx"
    },
    {
      "children": [
        4,
        17
      ],
      "name": "RootNode"
    },
    {
      "children": [
        5,
        8,
        11,
        14
      ],
      "name": "pCube22"
    },
    {
      "children": [
        6
      ],
      "name": "polySurface33"
    },
    {
      "children": [
        7
      ],
      "name": "Geode"
    },
    {
      "mesh": 0,
      "name": "polySurface33_lambert7_0"
    },
    {
      "children": [
        9
      ],
      "name": "polySurface35"
    },
    {
      "children": [
        10
      ],
      "name": "Geode"
    },
    {
      "mesh": 1,
      "name": "polySurface35_lambert7_0"
    },
    {
      "children": [
        12
      ],
      "matrix": [
        1,
        0,
        0,
        0,
        0,
        1,
        0,
        0,
        0,
        0,
        1,
        0,
        11.326992988586426,
        0,
        0,
        1
      ],
      "name": "polySurface45"
    },
    {
      "children": [
        13
      ],
      "name": "Geode"
    },
    {
      "mesh": 2,
      "name": "polySurface45_lambert7_0"
    },
    {
      "children": [
        15
      ],
      "matrix": [
        1,
        0,
        0,
        0,
        0,
        1,
        0,
        0,
        0,
        0,
        1,
        0,
        11.326992988586426,
        0,
        0,
        1
      ],
      "name": "polySurface46"
    },
    {
      "children": [
        16
      ],
      "name": "Geode"
    },
    {
      "mesh": 3,
      "name": "polySurface46_lambert7_0"
    },
    {
      "children": [
        18
      ],
      "name": "polySurface28"
    },
    {
      "children": [
        19,
        20,
        21,
        22,
        23
      ],
      "name": "Geode"
    },
    {
      "mesh": 4,
      "name": "polySurface28_lambert8_0"
    },
    {
      "mesh": 5,
      "name": "polySurface28_lambert9_0"
    },
    {
      "mesh": 6,
      "name": "polySurface28_lambert10_0"
    },
    {
      "mesh": 7,
      "name": "polySurface28_lambert11_0"
    },
    {
      "mesh": 8,
      "name": "polySurface28_lambert7_0"
    }
  ],
  "scene": 0,
  "scenes": [
    {
      "name": "OSG_Scene",
      "nodes": [
        0
      ]
    }
  ]
}

